<svg width="25" height="24" viewBox="0 0 25 24" fill="none" xmlns="http://www.w3.org/2000/svg">
<g clip-path="url(#clip0_732_6076)">
<path d="M24.167 12C24.167 5.37258 18.7944 0 12.167 0C5.53957 0 0.166992 5.37258 0.166992 12C0.166992 17.9895 4.5552 22.954 10.292 23.8542V15.4688H7.24512V12H10.292V9.35625C10.292 6.34875 12.0836 4.6875 14.8246 4.6875C16.1371 4.6875 17.5107 4.92188 17.5107 4.92188V7.875H15.9976C14.507 7.875 14.042 8.80008 14.042 9.75V12H17.3701L16.8381 15.4688H14.042V23.8542C19.7788 22.954 24.167 17.9895 24.167 12Z" fill="#1877F2"/>
<path d="M16.8381 15.4688L17.3701 12H14.042V9.75C14.042 8.80102 14.507 7.875 15.9976 7.875H17.5107V4.92188C17.5107 4.92188 16.1375 4.6875 14.8246 4.6875C12.0836 4.6875 10.292 6.34875 10.292 9.35625V12H7.24512V15.4688H10.292V23.8542C11.5344 24.0486 12.7995 24.0486 14.042 23.8542V15.4688H16.8381Z" fill="white"/>
</g>
<defs>
<clipPath id="clip0_732_6076">
<rect width="24" height="24" fill="white" transform="translate(0.166992)"/>
</clipPath>
</defs>
</svg>
